<svg xmlns="http://www.w3.org/2000/svg" xmlns:xlink="http://www.w3.org/1999/xlink" xmlns:lucid="lucid" width="1000" height="974.75"><g transform="translate(-439.3333333333335 -20.625)" lucid:page-tab-id="0_0"><path d="M755.33 81.88c-30.92 0-56 25.07-56 56v648c0 30.92 25.08 56 56 56h168c30.93 0 56-25.08 56-56v-648c0-30.93-25.07-56-56-56z" stroke="#fff" stroke-width="2" fill="#ffdba9"/><path d="M481.93 145.38c-12.48 0-22.6 10.1-22.6 22.6v67.8c0 12.48 10.12 22.6 22.6 22.6h134.8c12.48 0 22.6-10.12 22.6-22.6v-67.8c0-12.5-10.12-22.6-22.6-22.6z" stroke="#000" stroke-width="2" fill="#fff"/><use xlink:href="#a" transform="matrix(1,0,0,1,467.3333333333335,153.375) translate(57.339506172839506 39.611111111111114)"/><use xlink:href="#b" transform="matrix(1,0,0,1,467.3333333333335,153.375) translate(25.364197530864196 66.27777777777777)"/><path d="M549.42 263.38l.2 9.1.8 12.94 1.33 12.65 1.8 12.23 2.24 11.72 2.6 11.14 2.94 10.52 3.2 9.87 3.43 9.22 3.6 8.6 3.77 7.98 3.87 7.4 3.97 6.87 4.03 6.35 4.08 5.88 4.13 5.45 4.18 5.03 4.2 4.67 4.22 4.32 4.26 4 4.3 3.7 4.3 3.42 4.37 3.17 4.4 2.93 4.45 2.7 4.5 2.48 4.58 2.28 4.65 2.06 4.74 1.88 4.83 1.68 4.95 1.5 5.06 1.3" stroke="#ff8f80" stroke-width="8" fill="none"/><path d="M553.42 263.4l-8 .16-.1-4.2h8z" fill="#ff8f80"/><path d="M685.47 460.43l-14.7 3 1.04-9.2z" stroke="#ff8f80" stroke-width="8" fill="#ff8f80"/><path d="M759.33 141.88h160v120h-160z" fill="#fff"/><path d="M771.33 141.88h8m8 0h8m8 0h8m8 0h8m8 0h8m8 0h8m8 0h8m8 0h8m8 0h8m8 0h4v3.75m0 7.5v7.5m0 7.5v7.5m0 7.5v7.5m0 7.5v7.5m0 7.5v7.5m0 7.5v7.5m0 7.5v7.5m0 7.5v3.75h-4m-8 0h-8m-8 0h-8m-8 0h-8m-8 0h-8m-8 0h-8m-8 0h-8m-8 0h-8m-8 0h-8m-8 0h-8m-8 0h-4v-3.75m0-7.5v-7.5m0-7.5v-7.5m0-7.5v-7.5m0-7.5v-7.5m0-7.5v-7.5m0-7.5v-7.5m0-7.5v-7.5m0-7.5v-3.75h4" stroke="#000" stroke-width="2" fill="none"/><use xlink:href="#c" transform="matrix(1,0,0,1,764.3333333333335,146.875) translate(34.96913580246913 59.02777777777778)"/><path d="M759.33 373.63h160v120h-160z" fill="#fff"/><path d="M771.33 373.63h8m8 0h8m8 0h8m8 0h8m8 0h8m8 0h8m8 0h8m8 0h8m8 0h8m8 0h4v3.75m0 7.5v7.5m0 7.5v7.5m0 7.5v7.5m0 7.5v7.5m0 7.5v7.5m0 7.5v7.5m0 7.5v7.5m0 7.5v3.75h-4m-8 0h-8m-8 0h-8m-8 0h-8m-8 0h-8m-8 0h-8m-8 0h-8m-8 0h-8m-8 0h-8m-8 0h-8m-8 0h-4v-3.75m0-7.5v-7.5m0-7.5v-7.5m0-7.5v-7.5m0-7.5v-7.5m0-7.5v-7.5m0-7.5v-7.5m0-7.5v-7.5m0-7.5v-3.75h4" stroke="#000" stroke-width="2" fill="none"/><use xlink:href="#d" transform="matrix(1,0,0,1,764.3333333333335,378.625) translate(24.50617283950617 59.02777777777778)"/><path d="M759.33 605.38h160v120h-160z" fill="#fff"/><path d="M771.33 605.38h8m8 0h8m8 0h8m8 0h8m8 0h8m8 0h8m8 0h8m8 0h8m8 0h8m8 0h4v3.75m0 7.5v7.5m0 7.5v7.5m0 7.5v7.5m0 7.5v7.5m0 7.5v7.5m0 7.5v7.5m0 7.5v7.5m0 7.5v3.75h-4m-8 0h-8m-8 0h-8m-8 0h-8m-8 0h-8m-8 0h-8m-8 0h-8m-8 0h-8m-8 0h-8m-8 0h-8m-8 0h-4v-3.75m0-7.5v-7.5m0-7.5v-7.5m0-7.5v-7.5m0-7.5v-7.5m0-7.5v-7.5m0-7.5v-7.5m0-7.5v-7.5m0-7.5v-3.75h4" stroke="#000" stroke-width="2" fill="none"/><use xlink:href="#e" transform="matrix(1,0,0,1,764.3333333333335,610.375) translate(10 59.02777777777778)"/><path d="M719.33 777.13h240v60h-240z" stroke="#000" stroke-opacity="0" stroke-width="2" fill="#fff" fill-opacity="0"/><use xlink:href="#f" transform="matrix(1,0,0,1,724.3333333333335,782.125) translate(56.77469135802468 28.930555555555557)"/><path d="M1195.33 675.38c-30.92 0-56 25.07-56 56v184.5c0 30.92 25.08 56 56 56h168c30.93 0 56-25.08 56-56v-184.5c0-30.93-25.07-56-56-56z" stroke="#fff" stroke-width="2" fill="#c7e8ac"/><path d="M1159.33 915.38h240v60h-240z" stroke="#000" stroke-opacity="0" stroke-width="2" fill="#fff" fill-opacity="0"/><use xlink:href="#g" transform="matrix(1,0,0,1,1164.3333333333335,920.375) translate(87.39814814814815 28.930555555555557)"/><path d="M1195.33 40.63c-30.92 0-56 25.07-56 56v232.75c0 30.92 25.08 56 56 56h168c30.93 0 56-25.08 56-56V96.63c0-30.93-25.07-56-56-56z" stroke="#fff" stroke-width="2" fill="#b2b2b2"/><path d="M1139.33 192.54h180v68.67h-180z" stroke="#000" stroke-opacity="0" stroke-width="2" fill="#fff" fill-opacity="0"/><use xlink:href="#h" transform="matrix(1,0,0,1,1144.3333333333335,197.54166666666666) translate(49.79320987654321 34.30555555555556)"/><path d="M983.34 326.28h.36l3.2-.2 3.04-.33 2.92-.43 2.82-.53 2.73-.66 2.68-.74 2.6-.85 2.58-.96 2.55-1.08 2.54-1.2 2.55-1.32 2.55-1.48 2.6-1.65 2.66-1.85 2.76-2.1 2.88-2.37 3.04-2.74 3.28-3.2 3.64-3.88 4.22-4.9 5.4-6.85 30.23-41.44 4.22-4.9 3.64-3.88 3.3-3.22 3.03-2.74 2.87-2.38 2.75-2.1 2.67-1.84 2.6-1.66 2.56-1.48 2.54-1.33 2.54-1.18 2.12-.9" stroke="#b2b2b2" stroke-width="6" fill="none"/><path d="M983.47 329.28l-3.14.06v-6l3.02-.06z" fill="#b2b2b2"/><path d="M1128.8 214.78l-13.18 7.18-1.7-9.1z" stroke="#b2b2b2" stroke-width="6" fill="#b2b2b2"/><path d="M983.34 703.63h.18l3.02.2 2.9.3 2.8.4 2.68.53 2.62.6 2.56.73 2.5.8 2.48.92 2.46 1.03 2.44 1.16 2.46 1.3 2.47 1.42 2.52 1.6 2.56 1.77 2.65 2 2.75 2.28 2.9 2.6 3.1 3.05 3.38 3.6 3.82 4.43 4.56 5.78 6.32 8.72 26.06 38.2 4.57 5.77 3.8 4.43 3.4 3.6 3.1 3.05 2.9 2.62 2.74 2.27 2.64 2 2.57 1.8 2.5 1.58 2.48 1.43 2.45 1.3 2.45 1.14.92.4" stroke="#b2b2b2" stroke-width="6" fill="none"/><path d="M983.47 700.64l-.12 6-3.02-.07v-6z" fill="#b2b2b2"/><path d="M1128.8 821.74l-14.88 1.78 1.8-9.1z" stroke="#b2b2b2" stroke-width="6" fill="#b2b2b2"/><path d="M1279.33 389.38v12.9m0 25.8v25.8m0 25.8v25.8m0 25.8v25.8m0 25.8v25.82m0 25.8v12.9" stroke="#000" stroke-width="6" fill="none"/><path d="M1282.33 389.45h-6v-3.07h6z"/><path d="M1279.33 664.67l-4.63-14.27h9.27z" stroke="#000" stroke-width="6"/><defs><path d="M238-95c0 69-44 99-111 99C63 4 22-25 22-93v-155h51v151c-1 38 19 59 55 60 90 1 49-130 58-211h52v153" id="i"/><path d="M137-138c1-29-70-34-71-4 15 46 118 7 119 86 1 83-164 76-172 9l43-7c4 19 20 25 44 25 33 8 57-30 24-41C81-84 22-81 20-136c-2-80 154-74 161-7" id="j"/><path d="M185-48c-13 30-37 53-82 52C43 2 14-33 14-96s30-98 90-98c62 0 83 45 84 108H66c0 31 8 55 39 56 18 0 30-7 34-22zm-45-69c5-46-57-63-70-21-2 6-4 13-4 21h74" id="k"/><path d="M135-150c-39-12-60 13-60 57V0H25l-1-190h47c2 13-1 29 3 40 6-28 27-53 61-41v41" id="l"/><g id="a"><use transform="matrix(0.06172839506172839,0,0,0.06172839506172839,0,0)" xlink:href="#i"/><use transform="matrix(0.06172839506172839,0,0,0.06172839506172839,15.987654320987653,0)" xlink:href="#j"/><use transform="matrix(0.06172839506172839,0,0,0.06172839506172839,28.333333333333332,0)" xlink:href="#k"/><use transform="matrix(0.06172839506172839,0,0,0.06172839506172839,40.67901234567901,0)" xlink:href="#l"/></g><path d="M24 0v-248h52V0H24" id="m"/><path d="M135-194c87-1 58 113 63 194h-50c-7-57 23-157-34-157-59 0-34 97-39 157H25l-1-190h47c2 12-1 28 3 38 12-26 28-41 61-42" id="n"/><path d="M115-3C79 11 28 4 28-45v-112H4v-33h27l15-45h31v45h36v33H77v99c-1 23 16 31 38 25v30" id="o"/><path d="M133-34C117-15 103 5 69 4 32 3 11-16 11-54c-1-60 55-63 116-61 1-26-3-47-28-47-18 1-26 9-28 27l-52-2c7-38 36-58 82-57s74 22 75 68l1 82c-1 14 12 18 25 15v27c-30 8-71 5-69-32zm-48 3c29 0 43-24 42-57-32 0-66-3-65 30 0 17 8 27 23 27" id="p"/><path d="M190-63c-7 42-38 67-86 67-59 0-84-38-90-98-12-110 154-137 174-36l-49 2c-2-19-15-32-35-32-30 0-35 28-38 64-6 74 65 87 74 30" id="q"/><path d="M25-224v-37h50v37H25zM25 0v-190h50V0H25" id="r"/><path d="M110-194c64 0 96 36 96 99 0 64-35 99-97 99-61 0-95-36-95-99 0-62 34-99 96-99zm-1 164c35 0 45-28 45-65 0-40-10-65-43-65-34 0-45 26-45 65 0 36 10 65 43 65" id="s"/><g id="b"><use transform="matrix(0.06172839506172839,0,0,0.06172839506172839,0,0)" xlink:href="#m"/><use transform="matrix(0.06172839506172839,0,0,0.06172839506172839,6.172839506172839,0)" xlink:href="#n"/><use transform="matrix(0.06172839506172839,0,0,0.06172839506172839,19.691358024691358,0)" xlink:href="#o"/><use transform="matrix(0.06172839506172839,0,0,0.06172839506172839,27.037037037037038,0)" xlink:href="#k"/><use transform="matrix(0.06172839506172839,0,0,0.06172839506172839,39.382716049382715,0)" xlink:href="#l"/><use transform="matrix(0.06172839506172839,0,0,0.06172839506172839,48.02469135802469,0)" xlink:href="#p"/><use transform="matrix(0.06172839506172839,0,0,0.06172839506172839,60.37037037037037,0)" xlink:href="#q"/><use transform="matrix(0.06172839506172839,0,0,0.06172839506172839,72.71604938271605,0)" xlink:href="#o"/><use transform="matrix(0.06172839506172839,0,0,0.06172839506172839,80.06172839506173,0)" xlink:href="#r"/><use transform="matrix(0.06172839506172839,0,0,0.06172839506172839,86.23456790123457,0)" xlink:href="#s"/><use transform="matrix(0.06172839506172839,0,0,0.06172839506172839,99.75308641975309,0)" xlink:href="#n"/></g><path d="M199 0l-22-63H83L61 0H9l90-248h61L250 0h-51zm-33-102l-36-108c-10 38-24 72-36 108h72" id="t"/><path d="M128 0H69L1-190h53L99-40l48-150h52" id="u"/><path d="M123 10C108 53 80 86 19 72V37c35 8 53-11 59-39L3-190h52l48 148c12-52 28-100 44-148h51" id="v"/><g id="c"><use transform="matrix(0.06172839506172839,0,0,0.06172839506172839,0,0)" xlink:href="#t"/><use transform="matrix(0.06172839506172839,0,0,0.06172839506172839,15.987654320987653,0)" xlink:href="#q"/><use transform="matrix(0.06172839506172839,0,0,0.06172839506172839,28.333333333333332,0)" xlink:href="#o"/><use transform="matrix(0.06172839506172839,0,0,0.06172839506172839,35.67901234567901,0)" xlink:href="#r"/><use transform="matrix(0.06172839506172839,0,0,0.06172839506172839,41.851851851851855,0)" xlink:href="#u"/><use transform="matrix(0.06172839506172839,0,0,0.06172839506172839,54.19753086419753,0)" xlink:href="#r"/><use transform="matrix(0.06172839506172839,0,0,0.06172839506172839,60.370370370370374,0)" xlink:href="#o"/><use transform="matrix(0.06172839506172839,0,0,0.06172839506172839,67.71604938271605,0)" xlink:href="#v"/></g><path d="M76-208v77h127v40H76V0H24v-248h183v40H76" id="w"/><path d="M195-6C206 82 75 100 31 46c-4-6-6-13-8-21l49-6c3 16 16 24 34 25 40 0 42-37 40-79-11 22-30 35-61 35-53 0-70-43-70-97 0-56 18-96 73-97 30 0 46 14 59 34l2-30h47zm-90-29c32 0 41-27 41-63 0-35-9-62-40-62-32 0-39 29-40 63 0 36 9 62 39 62" id="x"/><path d="M220-157c-53 9-28 100-34 157h-49v-107c1-27-5-49-29-50C55-147 81-57 75 0H25l-1-190h47c2 12-1 28 3 38 10-53 101-56 108 0 13-22 24-43 59-42 82 1 51 116 57 194h-49v-107c-1-25-5-48-29-50" id="y"/><g id="d"><use transform="matrix(0.06172839506172839,0,0,0.06172839506172839,0,0)" xlink:href="#w"/><use transform="matrix(0.06172839506172839,0,0,0.06172839506172839,13.518518518518517,0)" xlink:href="#l"/><use transform="matrix(0.06172839506172839,0,0,0.06172839506172839,22.160493827160494,0)" xlink:href="#p"/><use transform="matrix(0.06172839506172839,0,0,0.06172839506172839,34.50617283950617,0)" xlink:href="#x"/><use transform="matrix(0.06172839506172839,0,0,0.06172839506172839,48.02469135802469,0)" xlink:href="#y"/><use transform="matrix(0.06172839506172839,0,0,0.06172839506172839,67.77777777777777,0)" xlink:href="#k"/><use transform="matrix(0.06172839506172839,0,0,0.06172839506172839,80.12345679012346,0)" xlink:href="#n"/><use transform="matrix(0.06172839506172839,0,0,0.06172839506172839,93.64197530864197,0)" xlink:href="#o"/></g><path d="M147 0H94L2-248h55l64 206c17-72 42-137 63-206h54" id="z"/><path d="M231 0h-52l-39-155L100 0H48L-1-190h46L77-45c9-52 24-97 36-145h53l37 145 32-145h46" id="A"/><path d="M4 7l51-268h42L46 7H4" id="B"/><path d="M275 0h-61l-44-196L126 0H64L0-248h53L97-49l45-199h58l43 199 44-199h52" id="C"/><path d="M88-194c31-1 46 15 58 34l-1-101h50l1 261h-48c-2-10 0-23-3-31C134-8 116 4 84 4 32 4 16-41 15-95c0-56 19-97 73-99zm17 164c33 0 40-30 41-66 1-37-9-64-41-64s-38 30-39 65c0 43 13 65 39 65" id="D"/><g id="e"><use transform="matrix(0.06172839506172839,0,0,0.06172839506172839,0,0)" xlink:href="#z"/><use transform="matrix(0.06172839506172839,0,0,0.06172839506172839,14.382716049382715,0)" xlink:href="#r"/><use transform="matrix(0.06172839506172839,0,0,0.06172839506172839,20.555555555555554,0)" xlink:href="#k"/><use transform="matrix(0.06172839506172839,0,0,0.06172839506172839,32.901234567901234,0)" xlink:href="#A"/><use transform="matrix(0.06172839506172839,0,0,0.06172839506172839,50.18518518518518,0)" xlink:href="#B"/><use transform="matrix(0.06172839506172839,0,0,0.06172839506172839,56.358024691358025,0)" xlink:href="#C"/><use transform="matrix(0.06172839506172839,0,0,0.06172839506172839,77.09876543209876,0)" xlink:href="#r"/><use transform="matrix(0.06172839506172839,0,0,0.06172839506172839,83.2716049382716,0)" xlink:href="#D"/><use transform="matrix(0.06172839506172839,0,0,0.06172839506172839,96.79012345679011,0)" xlink:href="#x"/><use transform="matrix(0.06172839506172839,0,0,0.06172839506172839,110.30864197530863,0)" xlink:href="#k"/><use transform="matrix(0.06172839506172839,0,0,0.06172839506172839,122.65432098765432,0)" xlink:href="#o"/></g><path d="M67-125c0 53 21 87 73 88 37 1 54-22 65-47l45 17C233-25 199 4 140 4 58 4 20-42 15-125 8-235 124-281 211-232c18 10 29 29 36 50l-46 12c-8-25-30-41-62-41-52 0-71 34-72 86" id="E"/><path d="M25 0v-261h50V0H25" id="F"/><g id="f"><use transform="matrix(0.06790123456790124,0,0,0.06790123456790124,0,0)" xlink:href="#E"/><use transform="matrix(0.06790123456790124,0,0,0.06790123456790124,17.58641975308642,0)" xlink:href="#s"/><use transform="matrix(0.06790123456790124,0,0,0.06790123456790124,32.45679012345679,0)" xlink:href="#n"/><use transform="matrix(0.06790123456790124,0,0,0.06790123456790124,47.327160493827165,0)" xlink:href="#o"/><use transform="matrix(0.06790123456790124,0,0,0.06790123456790124,55.40740740740742,0)" xlink:href="#l"/><use transform="matrix(0.06790123456790124,0,0,0.06790123456790124,64.91358024691358,0)" xlink:href="#s"/><use transform="matrix(0.06790123456790124,0,0,0.06790123456790124,79.78395061728395,0)" xlink:href="#F"/><use transform="matrix(0.06790123456790124,0,0,0.06790123456790124,86.57407407407408,0)" xlink:href="#F"/><use transform="matrix(0.06790123456790124,0,0,0.06790123456790124,93.36419753086419,0)" xlink:href="#k"/><use transform="matrix(0.06790123456790124,0,0,0.06790123456790124,106.94444444444446,0)" xlink:href="#l"/></g><g id="g"><use transform="matrix(0.06790123456790124,0,0,0.06790123456790124,0,0)" xlink:href="#z"/><use transform="matrix(0.06790123456790124,0,0,0.06790123456790124,15.82098765432099,0)" xlink:href="#r"/><use transform="matrix(0.06790123456790124,0,0,0.06790123456790124,22.611111111111114,0)" xlink:href="#k"/><use transform="matrix(0.06790123456790124,0,0,0.06790123456790124,36.19135802469136,0)" xlink:href="#A"/></g><path d="M230 0l2-204L168 0h-37L68-204 70 0H24v-248h70l56 185 57-185h69V0h-46" id="G"/><g id="h"><use transform="matrix(0.06790123456790124,0,0,0.06790123456790124,0,0)" xlink:href="#G"/><use transform="matrix(0.06790123456790124,0,0,0.06790123456790124,20.302469135802472,0)" xlink:href="#s"/><use transform="matrix(0.06790123456790124,0,0,0.06790123456790124,35.17283950617284,0)" xlink:href="#D"/><use transform="matrix(0.06790123456790124,0,0,0.06790123456790124,50.043209876543216,0)" xlink:href="#k"/><use transform="matrix(0.06790123456790124,0,0,0.06790123456790124,63.62345679012347,0)" xlink:href="#F"/></g></defs></g></svg>