<svg xmlns="http://www.w3.org/2000/svg" xmlns:xlink="http://www.w3.org/1999/xlink" xmlns:lucid="lucid" width="1460" height="946.84"><g transform="translate(-209.33333333333348 -1.9110377648794952)" lucid:page-tab-id="0_0"><path d="M985.33 461.9c-30.92 0-56 25.08-56 56v184.5c0 30.94 25.08 56 56 56h168c30.93 0 56-25.06 56-56V517.9c0-30.92-25.07-56-56-56z" stroke="#fff" stroke-width="2" fill="#c7e8ac"/><path d="M525.33 21.9c-30.92 0-56 25.08-56 56v648c0 30.94 25.08 56 56 56h168c30.93 0 56-25.06 56-56v-648c0-30.92-25.07-56-56-56z" stroke="#fff" stroke-width="2" fill="#ffdba9"/><path d="M830.33 740.9h-2v-2.98h2zm0-6.97h-2v-5.98h2zm0-9.97h-2v-5.98h2zm0-9.97h-2v-6h2zm0-9.98h-2v-5.98h2zm0-9.97h-2v-5.98h2zm0-9.97h-2v-5.98h2zm0-9.97h-2v-5.97h2zm0-9.96h-2v-5.98h2zm0-9.97h-2v-6h2zm0-9.97h-2v-6h2zm0-9.97h-2v-6h2zm0-9.97h-2v-6h2zm0-9.98h-2v-5.98h2zm0-9.97h-2v-5.97h2zm0-9.96h-2v-5.98h2zm0-9.97h-2v-5.98h2zm0-9.97h-2v-5.98h2zm0-9.97h-2v-5.98h2zm0-9.97h-2v-5.98h2zm0-9.97h-2v-6h2zm0-9.98h-2v-5.98h2zm0-9.97h-2v-5.98h2zm0-9.97h-2v-5.98h2zm0-9.97h-2v-5.97h2zm0-9.96h-2v-5.98h2zm0-9.97h-2v-6h2zm0-9.97h-2v-6h2zm0-9.97h-2v-6h2zm0-9.97h-2v-6h2zm0-9.98h-2v-5.98h2zm0-9.97h-2v-5.97h2zm0-9.96h-2v-5.98h2zm0-9.97h-2v-5.98h2zm0-9.97h-2v-5.98h2zm0-9.97h-2v-5.98h2zm0-9.97h-2v-5.98h2zm0-9.97h-2v-6h2zm0-9.98h-2v-5.98h2zm0-9.97h-2v-5.98h2zm0-9.97h-2v-5.98h2zm0-9.97h-2v-5.97h2zm0-9.96h-2v-5.98h2zm0-9.97h-2v-6h2zm0-9.97h-2v-6h2zm0-9.97h-2v-6h2zm0-9.97h-2v-6h2zm0-9.98h-2v-5.98h2zm0-9.97h-2v-5.97h2zm0-9.96h-2v-5.98h2zm0-9.97h-2v-5.98h2zm0-9.97h-2v-5.98h2zm0-9.97h-2v-5.98h2zm0-9.97h-2v-5.98h2zm0-9.97h-2v-6h2zm0-9.98h-2v-5.98h2zm0-9.97h-2v-5.98h2zm0-9.97h-2v-5.98h2zm0-9.97h-2v-5.97h2zm0-9.96h-2v-.4h2zm0-29.9h-2v-6h2zm0-9.98h-2v-6h2zm0-9.98h-2V99.8h2zm0-9.97h-2v-5.97h2zm0-9.96h-2v-5.98h2zm0-9.97h-2V69.9h2zm0-9.97h-2v-3h2z"/><path d="M830.33 62.94h-2V61.9h2zM830.33 741.9h-2v-1h2z"/><path d="M929.33 81.9h160v120h-160z" stroke="#000" stroke-width="2" fill="#fff"/><use xlink:href="#a" transform="matrix(1,0,0,1,934.3333333333335,86.9110377648795) translate(1.2962962962962905 59.02777777777778)"/><use xlink:href="#b" transform="matrix(1,0,0,1,934.3333333333335,86.9110377648795) translate(57.654320987654316 59.02777777777778)"/><path d="M989.33 161.9h160v120h-160z" stroke="#000" stroke-width="2" fill="#fff"/><use xlink:href="#c" transform="matrix(1,0,0,1,994.3333333333335,166.9110377648795) translate(23.827160493827158 45.27777777777778)"/><use xlink:href="#b" transform="matrix(1,0,0,1,994.3333333333335,166.9110377648795) translate(29.475308641975303 71.94444444444446)"/><path d="M723.87 142.9h-32.54v-2h32.54zm185.96 0H834.8v-2h75.03z"/><path d="M691.36 142.9h-1.03v-2h1.03zM925.1 141.9l-14.27 4.65v-9.27z"/><path d="M928.33 141.9l-18.5 6.02V135.9zm-16.5 3.27l10.03-3.26-10.03-3.25zM780.33 374.66h-89v-2h87V155.24h2zm129.5-231.75H834.8v-2h75.03z"/><path d="M691.36 374.66h-1.03v-2h1.03zM925.1 141.9l-14.27 4.65v-9.27z"/><path d="M928.33 141.9l-18.5 6.02V135.9zm-16.5 3.27l10.03-3.26-10.03-3.25zM780.33 606.4h-89v-2h87V155.25h2zm129.5-463.5H834.8v-2h75.03z"/><path d="M691.36 606.4h-1.03v-2h1.03zM925.1 141.9l-14.27 4.65v-9.27z"/><path d="M928.33 141.9l-18.5 6.02V135.9zm-16.5 3.27l10.03-3.26-10.03-3.25z"/><use xlink:href="#d" transform="matrix(1,0,0,1,723.8703703703706,128.57770443154615) translate(0 17.77777777777778)"/><path d="M989.33 541.9h160v120h-160z" stroke="#000" stroke-width="2" fill="#fff"/><use xlink:href="#e" transform="matrix(1,0,0,1,994.3333333333335,546.9110377648794) translate(19.475308641975303 45.27777777777778)"/><use xlink:href="#f" transform="matrix(1,0,0,1,994.3333333333335,546.9110377648794) translate(17.654320987654316 71.94444444444446)"/><path d="M1070.33 539.9h-2V399.06h2zm0-167.52h-2V301.4h2zM1070.33 540.9h-2v-1h2zM1073.97 300.4h-9.27l4.63-14.25z"/><path d="M1075.35 301.4h-12.03l6-18.5zm-9.28-2h6.52l-3.27-10.02z"/><use xlink:href="#d" transform="matrix(1,0,0,1,1013.8703703703706,372.3831454997381) translate(0 17.77777777777778)"/><path d="M251.93 85.4c-12.48 0-22.6 10.13-22.6 22.6v67.8c0 12.5 10.12 22.6 22.6 22.6h134.8c12.48 0 22.6-10.1 22.6-22.6V108c0-12.47-10.12-22.6-22.6-22.6z" stroke="#000" stroke-width="2" fill="#fff"/><use xlink:href="#g" transform="matrix(1,0,0,1,237.33333333333348,93.4110377648795) translate(57.339506172839506 39.611111111111114)"/><use xlink:href="#h" transform="matrix(1,0,0,1,237.33333333333348,93.4110377648795) translate(25.364197530864196 66.27777777777777)"/><path d="M319.42 203.4l.2 9.1.8 12.95 1.33 12.65 1.8 12.24 2.24 11.72 2.6 11.14 2.94 10.5 3.2 9.9 3.43 9.2 3.6 8.6 3.77 8 3.87 7.4 3.97 6.86 4.03 6.35 4.08 5.9 4.13 5.43 4.18 5.04 4.2 4.66 4.22 4.32 4.26 4 4.3 3.7 4.3 3.43 4.37 3.16 4.4 2.93 4.45 2.7 4.5 2.47 4.58 2.27 4.65 2.08 4.74 1.87 4.83 1.7 4.95 1.48 5.06 1.3" stroke="#ff8f80" stroke-width="8" fill="none"/><path d="M323.42 203.43l-8 .17-.1-4.2h8z" fill="#ff8f80"/><path d="M455.47 400.46l-14.7 3.02 1.04-9.22z" stroke="#ff8f80" stroke-width="8" fill="#ff8f80"/><path d="M529.33 81.9h160v120h-160z" stroke="#000" stroke-width="2" fill="#fff"/><use xlink:href="#i" transform="matrix(1,0,0,1,534.3333333333335,86.9110377648795) translate(34.96913580246913 59.02777777777778)"/><path d="M529.33 313.66h160v120h-160z" stroke="#000" stroke-width="2" fill="#fff"/><use xlink:href="#j" transform="matrix(1,0,0,1,534.3333333333335,318.6610377648795) translate(24.50617283950617 59.02777777777778)"/><path d="M529.33 545.4h160v120h-160z" stroke="#000" stroke-width="2" fill="#fff"/><use xlink:href="#k" transform="matrix(1,0,0,1,534.3333333333335,550.4110377648794) translate(10 59.02777777777778)"/><path d="M489.33 717.16h240v60h-240z" stroke="#000" stroke-opacity="0" stroke-width="2" fill="#fff" fill-opacity="0"/><use xlink:href="#l" transform="matrix(1,0,0,1,494.3333333333335,722.1610377648794) translate(87.39814814814815 28.930555555555557)"/><path d="M949.33 701.9h240v60h-240z" stroke="#000" stroke-opacity="0" stroke-width="2" fill="#fff" fill-opacity="0"/><use xlink:href="#m" transform="matrix(1,0,0,1,954.3333333333335,706.9110377648794) translate(58.709876543209866 28.930555555555557)"/><path d="M1425.33 145.66c-30.92 0-56 25.07-56 56V434.4c0 30.94 25.08 56 56 56h168c30.93 0 56-25.06 56-56V201.67c0-30.93-25.07-56-56-56z" stroke="#fff" stroke-width="2" fill="#b2b2b2"/><path d="M1309.33 297.58h240v68.66h-240z" stroke="#000" stroke-opacity="0" stroke-width="2" fill="#fff" fill-opacity="0"/><use xlink:href="#n" transform="matrix(1,0,0,1,1314.3333333333335,302.5777044315462) translate(79.79320987654322 34.30555555555556)"/><path d="M609.42 781.17v.54l.28 4.4.45 4.26.6 4.14.78 4.03.93 3.95 1.08 3.87 1.23 3.8 1.4 3.75 1.56 3.7 1.72 3.68 1.9 3.64 2.1 3.63 2.3 3.62 2.52 3.6 2.75 3.63 3 3.63 3.3 3.65 3.58 3.67 3.93 3.7 4.32 3.7 4.73 3.76 5.2 3.8 5.72 3.8 6.3 3.8 6.97 3.83 7.68 3.8 8.5 3.78 9.36 3.72 10.35 3.6 11.4 3.43 12.47 3.2 13.62 2.9 14.74 2.48 15.8 2 16.74 1.4 17.46.73h17.92l18.06-.76 17.88-1.5 17.38-2.2 16.63-2.8 15.67-3.34 14.6-3.74 13.46-4.07 12.32-4.28 11.2-4.44 10.17-4.52 9.2-4.56 8.3-4.56 7.52-4.55 6.77-4.5 6.13-4.45 5.54-4.4 5.03-4.33 4.55-4.27 4.12-4.2 3.75-4.17 3.4-4.1 3.1-4.08 2.8-4.03 2.54-4.02 2.3-4 2.08-3.98 1.88-3.98 1.67-4 1.5-4 1.06-3.26" stroke="#b2b2b2" stroke-width="8" fill="none"/><path d="M613.42 781.18l-8 .17-.1-4.2h8z" fill="#b2b2b2"/><path d="M1067.4 774.7l2.48 14.8-9.16-1.37z" stroke="#b2b2b2" stroke-width="8" fill="#b2b2b2"/><path d="M924.33 610l-.63-.03-2.2-.23-2.18-.32-2.12-.4-2.1-.5-2.07-.58-2.05-.67-2.06-.76-2.05-.85-2.07-.98-2.08-1.1-2.12-1.2-2.15-1.38-2.2-1.54-2.28-1.73-2.35-1.94-2.45-2.22-2.56-2.5-2.7-2.9-2.88-3.34-3.1-3.92-3.4-4.68-3.8-5.7-4.32-7.17-5.2-9.5-7-14.15-36.72-81.5-5.2-9.52-4.35-7.17-3.78-5.7-3.4-4.68-3.1-3.92-2.9-3.34-2.7-2.9-2.56-2.5-2.45-2.2-2.35-1.96-2.27-1.72-2.2-1.54-.45-.28" stroke="#ccc" stroke-width="8" fill="none"/><path d="M928.33 606.16v8l-4.18-.1.16-7.98z" fill="#ccc"/><path d="M762.73 405.65l15-.3-2.7 8.86z" stroke="#ccc" stroke-width="8" fill="#ccc"/><path d="M1213.84 610.14l107.13-.8 29.94-1.83 21.52-2.23 16.78-2.47 13.65-2.6 11.4-2.66 9.72-2.7 8.4-2.73 7.36-2.73 6.5-2.73 5.8-2.72 5.2-2.73 4.72-2.72 4.3-2.72 3.9-2.72 3.6-2.73 3.3-2.73 3.08-2.76 2.85-2.78 2.64-2.82 2.47-2.86 2.3-2.9 2.15-2.97 2.02-3.04 1.88-3.1 1.77-3.2 1.64-3.32 1.52-3.42 1.4-3.56 1.3-3.72 1.18-3.9.76-2.96" stroke="#ccc" stroke-width="7" fill="none"/><path d="M1213.95 613.63l-3.62.03v-7l3.57-.03z" fill="#ccc"/><path d="M1508.04 502.66l2.98 14.7-9.2-1.05z" stroke="#ccc" stroke-width="7" fill="#ccc"/><path d="M1160.86 416.2l-1.27 3.2-1.5 4.28-1.32 4.4-.75 2.9-7.75-1.97.8-3.08 1.4-4.7 1.6-4.6 1.35-3.38zm38.03-48.3l-1.83 1.37-4.52 3.74-4.14 3.74-3.8 3.74-3.52 3.74-3.24 3.75-1.27 1.6-6.26-4.97 1.37-1.73 3.46-4 3.75-4 4.05-3.96 4.4-3.95 4.77-3.95 1.95-1.48zm55.8-28.74l-1.83.6-9.53 3.53-8.65 3.62-7.84 3.7-1.25.64-3.7-7.1 1.4-.72 8.14-3.83 8.95-3.75 9.84-3.66 1.98-.65zm62.05-13.93l-15 2.2-13.97 2.67-2.4.57-1.83-7.8 2.57-.6 14.3-2.72 15.17-2.24zm47.66-3.1l-13.93.28-1.98.13-.5-7.98 2.14-.14 14.1-.28z" fill="#e5e5e5"/><path d="M1368.33 322.04l-4.02.08-.15-8 4.18-.08zM1156.3 434.44l-6.3 13.62-2.92-14.72z" fill="#e5e5e5"/><path d="M1162.23 431.13l-13.77 29.78-6.37-32.18z" fill="#e5e5e5"/><defs><path d="M147 0H94L2-248h55l64 206c17-72 42-137 63-206h54" id="o"/><path d="M25-224v-37h50v37H25zM25 0v-190h50V0H25" id="p"/><path d="M185-48c-13 30-37 53-82 52C43 2 14-33 14-96s30-98 90-98c62 0 83 45 84 108H66c0 31 8 55 39 56 18 0 30-7 34-22zm-45-69c5-46-57-63-70-21-2 6-4 13-4 21h74" id="q"/><path d="M231 0h-52l-39-155L100 0H48L-1-190h46L77-45c9-52 24-97 36-145h53l37 145 32-145h46" id="r"/><g id="a"><use transform="matrix(0.06172839506172839,0,0,0.06172839506172839,0,0)" xlink:href="#o"/><use transform="matrix(0.06172839506172839,0,0,0.06172839506172839,14.382716049382715,0)" xlink:href="#p"/><use transform="matrix(0.06172839506172839,0,0,0.06172839506172839,20.555555555555554,0)" xlink:href="#q"/><use transform="matrix(0.06172839506172839,0,0,0.06172839506172839,32.901234567901234,0)" xlink:href="#r"/></g><path d="M67-125c0 53 21 87 73 88 37 1 54-22 65-47l45 17C233-25 199 4 140 4 58 4 20-42 15-125 8-235 124-281 211-232c18 10 29 29 36 50l-46 12c-8-25-30-41-62-41-52 0-71 34-72 86" id="s"/><path d="M110-194c64 0 96 36 96 99 0 64-35 99-97 99-61 0-95-36-95-99 0-62 34-99 96-99zm-1 164c35 0 45-28 45-65 0-40-10-65-43-65-34 0-45 26-45 65 0 36 10 65 43 65" id="t"/><path d="M135-194c87-1 58 113 63 194h-50c-7-57 23-157-34-157-59 0-34 97-39 157H25l-1-190h47c2 12-1 28 3 38 12-26 28-41 61-42" id="u"/><path d="M115-3C79 11 28 4 28-45v-112H4v-33h27l15-45h31v45h36v33H77v99c-1 23 16 31 38 25v30" id="v"/><path d="M135-150c-39-12-60 13-60 57V0H25l-1-190h47c2 13-1 29 3 40 6-28 27-53 61-41v41" id="w"/><path d="M133-34C117-15 103 5 69 4 32 3 11-16 11-54c-1-60 55-63 116-61 1-26-3-47-28-47-18 1-26 9-28 27l-52-2c7-38 36-58 82-57s74 22 75 68l1 82c-1 14 12 18 25 15v27c-30 8-71 5-69-32zm-48 3c29 0 43-24 42-57-32 0-66-3-65 30 0 17 8 27 23 27" id="x"/><path d="M190-63c-7 42-38 67-86 67-59 0-84-38-90-98-12-110 154-137 174-36l-49 2c-2-19-15-32-35-32-30 0-35 28-38 64-6 74 65 87 74 30" id="y"/><g id="b"><use transform="matrix(0.06172839506172839,0,0,0.06172839506172839,0,0)" xlink:href="#s"/><use transform="matrix(0.06172839506172839,0,0,0.06172839506172839,15.987654320987653,0)" xlink:href="#t"/><use transform="matrix(0.06172839506172839,0,0,0.06172839506172839,29.50617283950617,0)" xlink:href="#u"/><use transform="matrix(0.06172839506172839,0,0,0.06172839506172839,43.02469135802469,0)" xlink:href="#v"/><use transform="matrix(0.06172839506172839,0,0,0.06172839506172839,50.37037037037037,0)" xlink:href="#w"/><use transform="matrix(0.06172839506172839,0,0,0.06172839506172839,59.01234567901234,0)" xlink:href="#x"/><use transform="matrix(0.06172839506172839,0,0,0.06172839506172839,71.35802469135803,0)" xlink:href="#y"/><use transform="matrix(0.06172839506172839,0,0,0.06172839506172839,83.70370370370371,0)" xlink:href="#v"/></g><path d="M24-248c93 1 206-16 204 79-1 75-69 88-152 82V0H24v-248zm52 121c47 0 100 7 100-41 0-47-54-39-100-39v80" id="z"/><path d="M137-138c1-29-70-34-71-4 15 46 118 7 119 86 1 83-164 76-172 9l43-7c4 19 20 25 44 25 33 8 57-30 24-41C81-84 22-81 20-136c-2-80 154-74 161-7" id="A"/><g id="c"><use transform="matrix(0.06172839506172839,0,0,0.06172839506172839,0,0)" xlink:href="#z"/><use transform="matrix(0.06172839506172839,0,0,0.06172839506172839,14.814814814814813,0)" xlink:href="#w"/><use transform="matrix(0.06172839506172839,0,0,0.06172839506172839,23.456790123456788,0)" xlink:href="#q"/><use transform="matrix(0.06172839506172839,0,0,0.06172839506172839,35.80246913580247,0)" xlink:href="#A"/><use transform="matrix(0.06172839506172839,0,0,0.06172839506172839,48.148148148148145,0)" xlink:href="#q"/><use transform="matrix(0.06172839506172839,0,0,0.06172839506172839,60.49382716049382,0)" xlink:href="#u"/><use transform="matrix(0.06172839506172839,0,0,0.06172839506172839,74.01234567901234,0)" xlink:href="#v"/><use transform="matrix(0.06172839506172839,0,0,0.06172839506172839,81.35802469135803,0)" xlink:href="#q"/><use transform="matrix(0.06172839506172839,0,0,0.06172839506172839,93.70370370370371,0)" xlink:href="#w"/></g><path d="M24 0v-248h52V0H24" id="B"/><path d="M220-157c-53 9-28 100-34 157h-49v-107c1-27-5-49-29-50C55-147 81-57 75 0H25l-1-190h47c2 12-1 28 3 38 10-53 101-56 108 0 13-22 24-43 59-42 82 1 51 116 57 194h-49v-107c-1-25-5-48-29-50" id="C"/><path d="M135-194c53 0 70 44 70 98 0 56-19 98-73 100-31 1-45-17-59-34 3 33 2 69 2 105H25l-1-265h48c2 10 0 23 3 31 11-24 29-35 60-35zM114-30c33 0 39-31 40-66 0-38-9-64-40-64-56 0-55 130 0 130" id="D"/><path d="M25 0v-261h50V0H25" id="E"/><g id="d"><use transform="matrix(0.06172839506172839,0,0,0.06172839506172839,0,0)" xlink:href="#B"/><use transform="matrix(0.06172839506172839,0,0,0.06172839506172839,6.172839506172839,0)" xlink:href="#C"/><use transform="matrix(0.06172839506172839,0,0,0.06172839506172839,25.925925925925924,0)" xlink:href="#D"/><use transform="matrix(0.06172839506172839,0,0,0.06172839506172839,39.44444444444444,0)" xlink:href="#E"/><use transform="matrix(0.06172839506172839,0,0,0.06172839506172839,45.617283950617285,0)" xlink:href="#q"/><use transform="matrix(0.06172839506172839,0,0,0.06172839506172839,57.96296296296296,0)" xlink:href="#C"/><use transform="matrix(0.06172839506172839,0,0,0.06172839506172839,77.71604938271605,0)" xlink:href="#q"/><use transform="matrix(0.06172839506172839,0,0,0.06172839506172839,90.06172839506173,0)" xlink:href="#u"/><use transform="matrix(0.06172839506172839,0,0,0.06172839506172839,103.58024691358025,0)" xlink:href="#v"/></g><path d="M175 0L67-191c6 58 2 128 3 191H24v-248h59L193-55c-6-58-2-129-3-193h46V0h-61" id="F"/><path d="M123 10C108 53 80 86 19 72V37c35 8 53-11 59-39L3-190h52l48 148c12-52 28-100 44-148h51" id="G"/><g id="e"><use transform="matrix(0.06172839506172839,0,0,0.06172839506172839,0,0)" xlink:href="#F"/><use transform="matrix(0.06172839506172839,0,0,0.06172839506172839,15.987654320987653,0)" xlink:href="#q"/><use transform="matrix(0.06172839506172839,0,0,0.06172839506172839,28.333333333333332,0)" xlink:href="#y"/><use transform="matrix(0.06172839506172839,0,0,0.06172839506172839,40.67901234567901,0)" xlink:href="#q"/><use transform="matrix(0.06172839506172839,0,0,0.06172839506172839,53.02469135802469,0)" xlink:href="#A"/><use transform="matrix(0.06172839506172839,0,0,0.06172839506172839,65.37037037037037,0)" xlink:href="#A"/><use transform="matrix(0.06172839506172839,0,0,0.06172839506172839,77.71604938271605,0)" xlink:href="#x"/><use transform="matrix(0.06172839506172839,0,0,0.06172839506172839,90.06172839506173,0)" xlink:href="#w"/><use transform="matrix(0.06172839506172839,0,0,0.06172839506172839,98.70370370370371,0)" xlink:href="#G"/></g><g id="f"><use transform="matrix(0.06172839506172839,0,0,0.06172839506172839,0,0)" xlink:href="#z"/><use transform="matrix(0.06172839506172839,0,0,0.06172839506172839,14.814814814814813,0)" xlink:href="#w"/><use transform="matrix(0.06172839506172839,0,0,0.06172839506172839,23.456790123456788,0)" xlink:href="#q"/><use transform="matrix(0.06172839506172839,0,0,0.06172839506172839,35.80246913580247,0)" xlink:href="#A"/><use transform="matrix(0.06172839506172839,0,0,0.06172839506172839,48.148148148148145,0)" xlink:href="#q"/><use transform="matrix(0.06172839506172839,0,0,0.06172839506172839,60.49382716049382,0)" xlink:href="#u"/><use transform="matrix(0.06172839506172839,0,0,0.06172839506172839,74.01234567901234,0)" xlink:href="#v"/><use transform="matrix(0.06172839506172839,0,0,0.06172839506172839,81.35802469135803,0)" xlink:href="#q"/><use transform="matrix(0.06172839506172839,0,0,0.06172839506172839,93.70370370370371,0)" xlink:href="#w"/><use transform="matrix(0.06172839506172839,0,0,0.06172839506172839,102.34567901234568,0)" xlink:href="#A"/></g><path d="M238-95c0 69-44 99-111 99C63 4 22-25 22-93v-155h51v151c-1 38 19 59 55 60 90 1 49-130 58-211h52v153" id="H"/><g id="g"><use transform="matrix(0.06172839506172839,0,0,0.06172839506172839,0,0)" xlink:href="#H"/><use transform="matrix(0.06172839506172839,0,0,0.06172839506172839,15.987654320987653,0)" xlink:href="#A"/><use transform="matrix(0.06172839506172839,0,0,0.06172839506172839,28.333333333333332,0)" xlink:href="#q"/><use transform="matrix(0.06172839506172839,0,0,0.06172839506172839,40.67901234567901,0)" xlink:href="#w"/></g><g id="h"><use transform="matrix(0.06172839506172839,0,0,0.06172839506172839,0,0)" xlink:href="#B"/><use transform="matrix(0.06172839506172839,0,0,0.06172839506172839,6.172839506172839,0)" xlink:href="#u"/><use transform="matrix(0.06172839506172839,0,0,0.06172839506172839,19.691358024691358,0)" xlink:href="#v"/><use transform="matrix(0.06172839506172839,0,0,0.06172839506172839,27.037037037037038,0)" xlink:href="#q"/><use transform="matrix(0.06172839506172839,0,0,0.06172839506172839,39.382716049382715,0)" xlink:href="#w"/><use transform="matrix(0.06172839506172839,0,0,0.06172839506172839,48.02469135802469,0)" xlink:href="#x"/><use transform="matrix(0.06172839506172839,0,0,0.06172839506172839,60.37037037037037,0)" xlink:href="#y"/><use transform="matrix(0.06172839506172839,0,0,0.06172839506172839,72.71604938271605,0)" xlink:href="#v"/><use transform="matrix(0.06172839506172839,0,0,0.06172839506172839,80.06172839506173,0)" xlink:href="#p"/><use transform="matrix(0.06172839506172839,0,0,0.06172839506172839,86.23456790123457,0)" xlink:href="#t"/><use transform="matrix(0.06172839506172839,0,0,0.06172839506172839,99.75308641975309,0)" xlink:href="#u"/></g><path d="M199 0l-22-63H83L61 0H9l90-248h61L250 0h-51zm-33-102l-36-108c-10 38-24 72-36 108h72" id="I"/><path d="M128 0H69L1-190h53L99-40l48-150h52" id="J"/><g id="i"><use transform="matrix(0.06172839506172839,0,0,0.06172839506172839,0,0)" xlink:href="#I"/><use transform="matrix(0.06172839506172839,0,0,0.06172839506172839,15.987654320987653,0)" xlink:href="#y"/><use transform="matrix(0.06172839506172839,0,0,0.06172839506172839,28.333333333333332,0)" xlink:href="#v"/><use transform="matrix(0.06172839506172839,0,0,0.06172839506172839,35.67901234567901,0)" xlink:href="#p"/><use transform="matrix(0.06172839506172839,0,0,0.06172839506172839,41.851851851851855,0)" xlink:href="#J"/><use transform="matrix(0.06172839506172839,0,0,0.06172839506172839,54.19753086419753,0)" xlink:href="#p"/><use transform="matrix(0.06172839506172839,0,0,0.06172839506172839,60.370370370370374,0)" xlink:href="#v"/><use transform="matrix(0.06172839506172839,0,0,0.06172839506172839,67.71604938271605,0)" xlink:href="#G"/></g><path d="M76-208v77h127v40H76V0H24v-248h183v40H76" id="K"/><path d="M195-6C206 82 75 100 31 46c-4-6-6-13-8-21l49-6c3 16 16 24 34 25 40 0 42-37 40-79-11 22-30 35-61 35-53 0-70-43-70-97 0-56 18-96 73-97 30 0 46 14 59 34l2-30h47zm-90-29c32 0 41-27 41-63 0-35-9-62-40-62-32 0-39 29-40 63 0 36 9 62 39 62" id="L"/><g id="j"><use transform="matrix(0.06172839506172839,0,0,0.06172839506172839,0,0)" xlink:href="#K"/><use transform="matrix(0.06172839506172839,0,0,0.06172839506172839,13.518518518518517,0)" xlink:href="#w"/><use transform="matrix(0.06172839506172839,0,0,0.06172839506172839,22.160493827160494,0)" xlink:href="#x"/><use transform="matrix(0.06172839506172839,0,0,0.06172839506172839,34.50617283950617,0)" xlink:href="#L"/><use transform="matrix(0.06172839506172839,0,0,0.06172839506172839,48.02469135802469,0)" xlink:href="#C"/><use transform="matrix(0.06172839506172839,0,0,0.06172839506172839,67.77777777777777,0)" xlink:href="#q"/><use transform="matrix(0.06172839506172839,0,0,0.06172839506172839,80.12345679012346,0)" xlink:href="#u"/><use transform="matrix(0.06172839506172839,0,0,0.06172839506172839,93.64197530864197,0)" xlink:href="#v"/></g><path d="M4 7l51-268h42L46 7H4" id="M"/><path d="M275 0h-61l-44-196L126 0H64L0-248h53L97-49l45-199h58l43 199 44-199h52" id="N"/><path d="M88-194c31-1 46 15 58 34l-1-101h50l1 261h-48c-2-10 0-23-3-31C134-8 116 4 84 4 32 4 16-41 15-95c0-56 19-97 73-99zm17 164c33 0 40-30 41-66 1-37-9-64-41-64s-38 30-39 65c0 43 13 65 39 65" id="O"/><g id="k"><use transform="matrix(0.06172839506172839,0,0,0.06172839506172839,0,0)" xlink:href="#o"/><use transform="matrix(0.06172839506172839,0,0,0.06172839506172839,14.382716049382715,0)" xlink:href="#p"/><use transform="matrix(0.06172839506172839,0,0,0.06172839506172839,20.555555555555554,0)" xlink:href="#q"/><use transform="matrix(0.06172839506172839,0,0,0.06172839506172839,32.901234567901234,0)" xlink:href="#r"/><use transform="matrix(0.06172839506172839,0,0,0.06172839506172839,50.18518518518518,0)" xlink:href="#M"/><use transform="matrix(0.06172839506172839,0,0,0.06172839506172839,56.358024691358025,0)" xlink:href="#N"/><use transform="matrix(0.06172839506172839,0,0,0.06172839506172839,77.09876543209876,0)" xlink:href="#p"/><use transform="matrix(0.06172839506172839,0,0,0.06172839506172839,83.2716049382716,0)" xlink:href="#O"/><use transform="matrix(0.06172839506172839,0,0,0.06172839506172839,96.79012345679011,0)" xlink:href="#L"/><use transform="matrix(0.06172839506172839,0,0,0.06172839506172839,110.30864197530863,0)" xlink:href="#q"/><use transform="matrix(0.06172839506172839,0,0,0.06172839506172839,122.65432098765432,0)" xlink:href="#v"/></g><g id="l"><use transform="matrix(0.06790123456790124,0,0,0.06790123456790124,0,0)" xlink:href="#o"/><use transform="matrix(0.06790123456790124,0,0,0.06790123456790124,15.82098765432099,0)" xlink:href="#p"/><use transform="matrix(0.06790123456790124,0,0,0.06790123456790124,22.611111111111114,0)" xlink:href="#q"/><use transform="matrix(0.06790123456790124,0,0,0.06790123456790124,36.19135802469136,0)" xlink:href="#r"/></g><g id="m"><use transform="matrix(0.06790123456790124,0,0,0.06790123456790124,0,0)" xlink:href="#z"/><use transform="matrix(0.06790123456790124,0,0,0.06790123456790124,16.296296296296298,0)" xlink:href="#w"/><use transform="matrix(0.06790123456790124,0,0,0.06790123456790124,25.802469135802472,0)" xlink:href="#q"/><use transform="matrix(0.06790123456790124,0,0,0.06790123456790124,39.38271604938272,0)" xlink:href="#A"/><use transform="matrix(0.06790123456790124,0,0,0.06790123456790124,52.96296296296297,0)" xlink:href="#q"/><use transform="matrix(0.06790123456790124,0,0,0.06790123456790124,66.54320987654322,0)" xlink:href="#u"/><use transform="matrix(0.06790123456790124,0,0,0.06790123456790124,81.41358024691358,0)" xlink:href="#v"/><use transform="matrix(0.06790123456790124,0,0,0.06790123456790124,89.49382716049384,0)" xlink:href="#q"/><use transform="matrix(0.06790123456790124,0,0,0.06790123456790124,103.07407407407409,0)" xlink:href="#w"/></g><path d="M230 0l2-204L168 0h-37L68-204 70 0H24v-248h70l56 185 57-185h69V0h-46" id="P"/><g id="n"><use transform="matrix(0.06790123456790124,0,0,0.06790123456790124,0,0)" xlink:href="#P"/><use transform="matrix(0.06790123456790124,0,0,0.06790123456790124,20.302469135802472,0)" xlink:href="#t"/><use transform="matrix(0.06790123456790124,0,0,0.06790123456790124,35.17283950617284,0)" xlink:href="#O"/><use transform="matrix(0.06790123456790124,0,0,0.06790123456790124,50.043209876543216,0)" xlink:href="#q"/><use transform="matrix(0.06790123456790124,0,0,0.06790123456790124,63.62345679012347,0)" xlink:href="#E"/></g></defs></g></svg>